HD DESI ROCKERS GROUP RELEASES


INFO:

Title..................: The Incredibles
Year...................: 2004
Genre..................: Computer-Animated
Directer...............: Brad Bird
Run time...............: 1h 55mn 24sec
size ..................: 789 MB
Languages..............: English.Hindi

___________________________________________________________________________

Video

Format                           : MKV
Duration                         : 1h 55mn 24sec
Display aspect ratio             : 16:9
Resolution                       : 560*240
Stream size                      : 576 MiB 
_______________________________________________________________________________


Audio #1 :English
ID                               : 1
Format                           : MPEG 1 Layer 3
Duration                         : 1h 55mn 24sec
Bit rate mode                    : Constant
Bit rate                         : 128 Kbps
Channel(s)                       : 2 channels
Channel positions                : Front: L R
Sampling rate                    : 48.0 KHz
Stream size                      : 106 MiB 

____________________________________________________________________________


Audio #2 :Hindi
ID                               : 2
Format                           : MPEG 1 Layer 3 
Duration                         : 1h 55mn 24sec
Bit rate mode                    : Constant
Bit rate                         : 128 Kbps
Channel(s)                       : 2 channels
Channel positions                : Front: L R
Sampling rate                    : 48 Hz
Stream size                      : 106 MiB
__________________________________________________________________________



Seeding at 2:00 AM ISt - 8:00 AM ISt
Please wait during seeding
Plz seed after download
Thankyou...


Screens
 
http://img688.imageshack.us/img688/8146/64321302.png 
http://img517.imageshack.us/img517/8647/37887439.png 
http://img688.imageshack.us/img688/2475/16317976.png 
http://img32.imageshack.us/img32/3272/52157117.png 
http://img442.imageshack.us/img442/2628/26588771.png 
http://img338.imageshack.us/img338/1496/99744656.png